<svg width="200" height="200" xmlns="http://www.w3.org/2000/svg" data-name="Layer 1">

 <g>
  <title>Layer 1</title>
  <rect id="svg_15" transform="rotate(-86.1899 -313.175 254.446)" fill="#e6e6e6" height="21.61009" width="21.61009" y="605.82174" x="-175.66178"/>
  <path id="svg_16" fill="#ccc" d="m34.08564,130.47195l26.18282,1.74368l-1.74369,26.18282l-26.18282,-1.74368l1.74369,-26.18282zm24.96862,2.80626l-23.90605,-1.59206l-1.59206,23.906l23.90605,1.59206l1.59206,-23.906z"/>
  <rect id="svg_17" transform="rotate(-12.1267 -147.572 -172.075)" fill="#e6e6e6" height="21.61009" width="21.61009" y="116.69722" x="93.4363"/>
  <path id="svg_18" fill="#ccc" d="m155.02052,44.85018l5.51255,25.65526l-25.65526,5.51254l-5.51254,-25.65526l25.65525,-5.51254zm4.15743,24.7795l-5.0332,-23.42436l-23.42437,5.03319l5.03319,23.42438l23.42438,-5.03321z"/>
  <rect id="svg_19" transform="rotate(-43.1271 -301.946 39.6417)" fill="#e6e6e6" height="21.61009" width="21.61008" y="432.3158" x="-75.34257"/>
  <path id="svg_20" fill="#ccc" d="m163.55666,154.33725l-19.15156,17.93874l-17.93873,-19.15156l19.15156,-17.93872l17.93873,19.15154zm-19.09885,16.3261l17.48621,-16.37883l-16.37884,-17.48618l-17.48621,16.37884l16.37884,17.48617z"/>
  <circle id="svg_23" fill="#fff" r="6.43477" cy="15.01449" cx="643.04942"/>
 </g>
</svg>