<svg width="512" height="512" xmlns="http://www.w3.org/2000/svg" version="1.1" xml:space="preserve">
 <g>
  <title>Layer 1</title>
  <circle cx="267" cy="257" r="245" fill="#cccccc" id="svg_1"/>
  <rect x="184.72" y="358.53" width="78.71" height="41.23" fill="#bfa67a" id="svg_2"/>
  <rect x="185.72" y="359.53" width="19.842" height="41.23" fill="#9e8863" id="svg_3"/>
  <path d="m316.856,398.763l-189.296,0c-2.806,0 -5.101,2.296 -5.101,5.102l0,25.571c0,2.806 2.296,5.102 5.101,5.102l189.296,0l0,-35.775l0,0z" fill="#bfa67a" id="svg_4"/>
  <path d="m141.301,429.435l0,-25.571c0,-2.806 2.296,-5.102 5.102,-5.102l-19.843,0c-2.806,0 -5.101,2.296 -5.101,5.102l0,25.571c0,2.806 2.296,5.102 5.101,5.102l19.842,0c-2.805,0 -5.101,-2.296 -5.101,-5.102z" fill="#9e8863" id="svg_5"/>
  <path d="m445.054,58.964l-439.952,0c-2.806,0 -5.102,2.296 -5.102,5.102l0,290.364c0,2.807 2.296,5.102 5.102,5.102l311.754,0l0,-152.764c0,-3.859 3.14,-7 7,-7l126.3,0l0,-135.702c0,-2.806 -2.296,-5.102 -5.102,-5.102z" fill="#bfa67a" id="svg_6"/>
  <path d="m22.396,308.514c0,1.684 1.377,3.06 3.061,3.06l291.399,0l0,-104.806c0,-3.859 3.14,-7 7,-7l103.904,0l0,-90.77l-405.364,0l0,199.516z" fill="#FFFFFF" id="svg_7"/>
  <path d="m42.239,308.514l0,-199.516l-19.843,0l0,199.516c0,1.684 1.377,3.06 3.061,3.06l19.843,0c-1.684,0 -3.061,-1.377 -3.061,-3.06z" fill="#D9EAFC" id="svg_8"/>
  <circle cx="225.08" cy="335.46" r="13.774" fill="#4f4f4f" id="svg_9"/>
  <path d="m316.856,223.146l-53.424,0c-1.65,0 -3,1.35 -3,3l0,59.639c0,1.65 1.35,3 3,3l53.424,0l0,-65.639z" fill="#C3DDF4" id="svg_10"/>
  <path d="m280.274,285.785l0,-59.639c0,-1.65 1.35,-3 3,-3l-19.842,0c-1.65,0 -3,1.35 -3,3l0,59.639c0,1.65 1.35,3 3,3l19.842,0c-1.65,0 -3,-1.35 -3,-3z" fill="#AEC1ED" id="svg_11"/>
  <path d="m323.856,199.768l46.618,0l0,-65.382c0,-2.75 -2.25,-5 -5,-5l-280.792,0c-2.75,0 -5,2.25 -5,5l0,66.525c0,2.75 2.25,5 5,5l232.233,0c0.424,-3.456 3.373,-6.143 6.941,-6.143z" fill="#C3DDF4" id="svg_12"/>
  <path d="m99.524,200.91l0,-66.525c0,-2.75 2.25,-5 5,-5l-19.842,0c-2.75,0 -5,2.25 -5,5l0,66.525c0,2.75 2.25,5 5,5l19.842,0c-2.75,0 -5,-2.25 -5,-5z" fill="#AEC1ED" id="svg_13"/>
  <path d="m424.699,85.983l-399.242,0c-1.684,0 -3.061,1.377 -3.061,3.062l0,21.953l405.364,0l0,-21.953c0,-1.685 -1.378,-3.062 -3.061,-3.062z" fill="#BBBBBB" id="svg_14"/>
  <path d="m45.3,84.983l-19.843,0c-1.684,0 -3.061,1.377 -3.061,3.062l0,21.953l19.842,0l0,-21.953c0.001,-1.685 1.378,-3.062 3.062,-3.062z" fill="#939393" id="svg_15"/>
  <g id="svg_16">
   <path d="m171.504,238.979l-84.17,0c-4.142,0 -7.5,-3.357 -7.5,-7.5s3.358,-7.5 7.5,-7.5l84.17,0c4.142,0 7.5,3.357 7.5,7.5s-3.358,7.5 -7.5,7.5z" fill="#5DC1D8" id="svg_17"/>
   <path d="m171.504,263.466l-84.17,0c-4.142,0 -7.5,-3.357 -7.5,-7.5s3.358,-7.5 7.5,-7.5l84.17,0c4.142,0 7.5,3.357 7.5,7.5c0,4.142 -3.358,7.5 -7.5,7.5z" fill="#5DC1D8" id="svg_18"/>
   <path d="m171.504,287.953l-84.17,0c-4.142,0 -7.5,-3.357 -7.5,-7.5s3.358,-7.5 7.5,-7.5l84.17,0c4.142,0 7.5,3.357 7.5,7.5s-3.358,7.5 -7.5,7.5z" fill="#5DC1D8" id="svg_19"/>
   <path d="m237.56,238.979l-43.326,0c-4.142,0 -7.5,-3.357 -7.5,-7.5s3.358,-7.5 7.5,-7.5l43.326,0c4.142,0 7.5,3.357 7.5,7.5s-3.358,7.5 -7.5,7.5z" fill="#5DC1D8" id="svg_20"/>
   <path d="m237.56,263.466l-43.326,0c-4.142,0 -7.5,-3.357 -7.5,-7.5s3.358,-7.5 7.5,-7.5l43.326,0c4.142,0 7.5,3.357 7.5,7.5c0,4.142 -3.358,7.5 -7.5,7.5z" fill="#5DC1D8" id="svg_21"/>
   <path d="m237.56,287.953l-43.326,0c-4.142,0 -7.5,-3.357 -7.5,-7.5s3.358,-7.5 7.5,-7.5l43.326,0c4.142,0 7.5,3.357 7.5,7.5s-3.358,7.5 -7.5,7.5z" fill="#5DC1D8" id="svg_22"/>
  </g>
  <path d="m504,198.768c4.4,0 8,3.6 8,8l0,241.77c0,4.4 -3.6,8 -8,8l-180.144,0c-4.4,0 -8,-3.6 -8,-8l0,-241.77c0,-4.4 3.6,-8 8,-8l180.144,0l0,0z" fill="#bfa67a" id="svg_23"/>
  <path d="m337.567,425.125c-2.75,0 -5,-2.25 -5,-5l0,-200.945c0,-2.75 2.25,-5 5,-5l152.723,0c2.75,0 5,2.25 5,5l0,200.945c0,2.75 -2.25,5 -5,5l-152.723,0z" fill="#FFFFFF" id="svg_24"/>
  <path d="m352.409,420.125l0,-200.945c0,-2.75 2.25,-5 5,-5l-19.842,0c-2.75,0 -5,2.25 -5,5l0,200.945c0,2.75 2.25,5 5,5l19.842,0c-2.75,0 -5,-2.25 -5,-5z" fill="#D9EAFC" id="svg_25"/>
  <path d="m404.567,445.125c-2.75,0 -5,-2.25 -5,-5l0,-1.945c0,-2.75 2.25,-5 5,-5l18.723,0c2.75,0 5,2.25 5,5l0,1.945c0,2.75 -2.25,5 -5,5l-18.723,0z" fill="#4f4f4f" id="svg_26"/>
  <path d="m495.29,234.473l0,-14.293c0,-2.75 -2.25,-5 -5,-5l-152.723,0c-2.75,0 -5,2.25 -5,5l0,14.293l162.723,0l0,0z" fill="#bbbbbb" id="svg_27"/>
  <path d="m357.409,214.18l-19.842,0c-2.75,0 -5,2.25 -5,5l0,14.293l19.842,0l0,-14.293c0,-2.75 2.25,-5 5,-5z" fill="#939393" id="svg_28"/>
  <g id="svg_29">
   <path d="m448.013,324.933l-68.169,0c-4.142,0 -7.5,-3.357 -7.5,-7.5s3.358,-7.5 7.5,-7.5l68.169,0c4.142,0 7.5,3.357 7.5,7.5c0,4.142 -3.358,7.5 -7.5,7.5z" fill="#5DC1D8" id="svg_30"/>
   <path d="m448.013,348.06l-68.169,0c-4.142,0 -7.5,-3.357 -7.5,-7.5c0,-4.142 3.358,-7.5 7.5,-7.5l68.169,0c4.142,0 7.5,3.358 7.5,7.5c0,4.143 -3.358,7.5 -7.5,7.5z" fill="#5DC1D8" id="svg_31"/>
   <path d="m448.013,371.185l-68.169,0c-4.142,0 -7.5,-3.357 -7.5,-7.5c0,-4.142 3.358,-7.5 7.5,-7.5l68.169,0c4.142,0 7.5,3.358 7.5,7.5c0,4.143 -3.358,7.5 -7.5,7.5z" fill="#5DC1D8" id="svg_32"/>
  </g>
  <path d="m478.756,292.257c0,2.75 -2.25,5 -5,5l-121.655,0c-2.75,0 -5,-2.25 -5,-5l0,-41.244c0,-2.75 2.25,-5 5,-5l121.655,0c2.75,0 5,2.25 5,5l0,41.244z" fill="#C3DDF4" id="svg_33"/>
  <path d="m367.943,292.257l0,-41.244c0,-2.75 2.25,-5 5,-5l-19.842,0c-2.75,0 -5,2.25 -5,5l0,41.244c0,2.75 2.25,5 5,5l19.842,0c-2.75,0 -5,-2.25 -5,-5z" fill="#AEC1ED" id="svg_34"/>
  <path d="m461.757,409.416c0,2.75 -2.25,5 -5,5l-85.657,0c-2.75,0 -5,-2.25 -5,-5l0,-16.91c0,-2.75 2.25,-5 5,-5l85.657,0c2.75,0 5,2.25 5,5l0,16.91l0,0z" fill="#C3DDF4" id="svg_35"/>
  <path d="m385.942,409.416l0,-16.91c0,-2.75 2.25,-5 5,-5l-19.842,0c-2.75,0 -5,2.25 -5,5l0,16.91c0,2.75 2.25,5 5,5l19.842,0c-2.75,0 -5,-2.25 -5,-5z" fill="#AEC1ED" id="svg_36"/>
  <g id="svg_37"/>
  <g id="svg_38"/>
  <g id="svg_39"/>
  <g id="svg_40"/>
  <g id="svg_41"/>
  <g id="svg_42"/>
  <g id="svg_43"/>
  <g id="svg_44"/>
  <g id="svg_45"/>
  <g id="svg_46"/>
  <g id="svg_47"/>
  <g id="svg_48"/>
  <g id="svg_49"/>
  <g id="svg_50"/>
  <g id="svg_51"/>
 </g>

</svg>